<?xml version="1.0" encoding="utf-8"?>
<!-- Generator: Adobe Illustrator 24.0.1, SVG Export Plug-In . SVG Version: 6.00 Build 0)  -->
<svg version="1.1" id="Layer_1" xmlns="http://www.w3.org/2000/svg" xmlns:xlink="http://www.w3.org/1999/xlink" x="0px" y="0px"
	 viewBox="0 0 1078.37 224.35" style="enable-background:new 0 0 1078.37 224.35;" xml:space="preserve">
<style type="text/css">
	.st0{fill-rule:evenodd;clip-rule:evenodd;fill:#003462;}
	.st1{fill-rule:evenodd;clip-rule:evenodd;fill:#FDC300;}
	.st2{fill:#003462;}
</style>
<g>
	<g>
		<g>
			<path class="st0" d="M520.11-1267.64c6.7,6.7,6.7,17.57,0,24.27l-32.93,32.93c-6.7,6.7-17.57,6.7-24.27,0l-32.93-32.93
				c-6.7-6.7-6.7-17.57,0-24.27l32.93-32.93c6.7-6.7,17.57-6.7,24.27,0L520.11-1267.64z"/>
			<path class="st1" d="M462.91-1157.57c6.7-6.7,6.7-17.57,0-24.27l-61.53-61.53c-6.7-6.7-17.57-6.7-24.27,0l-147.33,147.33
				c-6.7,6.7-6.7,17.57,0,24.27l147.33,147.33c6.7,6.7,17.57,6.7,24.27,0l61.53-61.53c6.7-6.7,6.7-17.57,0-24.27l-61.53-61.53
				c-6.7-6.7-6.7-17.57,0-24.27L462.91-1157.57z"/>
			<path class="st0" d="M520.11-924.44c6.7,6.7,6.7,17.57,0,24.27l-32.93,32.93c-6.7,6.7-17.57,6.7-24.27,0l-32.93-32.93
				c-6.7-6.7-6.7-17.57,0-24.27l32.93-32.93c6.7-6.7,17.57-6.7,24.27,0L520.11-924.44z"/>
			<path class="st0" d="M572.98-1243.37c-6.7-6.7-17.57-6.7-24.27,0l-61.53,61.53c-6.7,6.7-6.7,17.57,0,24.27l61.53,61.53
				c6.7,6.7,6.7,17.57,0,24.27l-61.53,61.53c-6.7,6.7-6.7,17.57,0,24.27l61.53,61.53c6.7,6.7,17.57,6.7,24.27,0l147.34-147.33
				c6.7-6.7,6.7-17.57,0-24.27L572.98-1243.37z"/>
		</g>
		<g>
			<path class="st2" d="M131.97-787.08c8.32,0,15.27,0.62,20.83,1.86c5.57,1.24,10.04,3.21,13.41,5.92
				c2.92,2.37,5.12,5.16,6.58,8.37c1.46,3.21,2.19,7.02,2.19,11.41v1.52c0,5.52-1.09,10.17-3.27,13.95
				c-2.18,3.78-5.12,6.62-8.81,8.54v0.51c5.28,1.35,9.52,3.95,12.71,7.78c3.19,3.83,4.79,9.13,4.79,15.89v2.2
				c0,9.81-2.58,17.3-7.73,22.49c-6.72,6.99-17.92,10.48-33.6,10.48h-4.7c-6.27,0-12.07-0.09-17.39-0.25
				c-5.32-0.17-9.16-0.48-11.51-0.93c-2.58-0.45-4.34-1.24-5.29-2.37c-0.95-1.13-1.43-2.82-1.43-5.07v-94.33
				c0-2.48,0.42-4.17,1.27-5.07c0.84-0.9,2.39-1.46,4.64-1.69c3.71-0.45,7.76-0.76,12.14-0.93c4.39-0.17,8.89-0.25,13.5-0.25H131.97
				z M134.41-764.09h-3.21c-1.01,0-1.86,0.06-2.54,0.17c-1.01,0.22-1.52,0.84-1.52,1.85v19.46h7.61c4.28,0,7.32-0.73,9.13-2.18
				c1.8-1.45,2.7-4.08,2.7-7.88v-2.01c0-3.24-0.68-5.54-2.03-6.88c-1.58-1.67-4.45-2.51-8.62-2.51H134.41z M127.14-702.19
				c0,1.79,0.84,2.74,2.53,2.85c0.9,0.11,1.86,0.17,2.87,0.17h3.38h2.37c2.93,0,5.21-0.22,6.85-0.67c1.63-0.45,2.96-1.12,3.97-2.02
				c1.12-0.89,1.89-2.07,2.28-3.52c0.39-1.45,0.59-3.13,0.59-5.03v-1.34c0-3.91-1.01-6.66-3.04-8.23c-1.13-0.89-2.65-1.54-4.56-1.93
				c-1.92-0.39-4.4-0.59-7.44-0.59h-9.8V-702.19z"/>
			<path class="st2" d="M266.96-712.19c0,4.28-0.23,8.06-0.68,11.33c-0.45,3.27-1.13,6.12-2.02,8.54c-0.9,2.42-2,4.54-3.29,6.34
				c-1.29,1.8-2.84,3.38-4.64,4.73c-2.48,1.92-5.91,3.5-10.29,4.73c-4.38,1.24-9.61,1.86-15.69,1.86h-2.02
				c-6.07,0-11.3-0.62-15.69-1.86c-4.39-1.24-7.82-2.82-10.29-4.73c-1.8-1.35-3.35-2.93-4.64-4.73c-1.29-1.8-2.39-3.92-3.29-6.34
				c-0.9-2.42-1.58-5.27-2.03-8.54c-0.45-3.27-0.67-7.04-0.67-11.33v-10.82c0-4.28,0.23-8.06,0.67-11.33
				c0.45-3.27,1.13-6.11,2.03-8.54c0.9-2.42,1.99-4.54,3.29-6.34c1.29-1.8,2.84-3.38,4.64-4.73c2.47-1.91,5.9-3.49,10.29-4.73
				c4.38-1.24,9.61-1.86,15.69-1.86h2.02c6.07,0,11.3,0.62,15.69,1.86c4.38,1.24,7.82,2.82,10.29,4.73c1.8,1.35,3.34,2.93,4.64,4.73
				c1.29,1.8,2.39,3.92,3.29,6.34c0.9,2.42,1.57,5.24,2.02,8.45c0.45,3.21,0.68,6.96,0.68,11.24V-712.19z M218.44-767.3
				c-1.13,1.24-2.37,1.86-3.72,1.86c-1.24,0-2.42-0.51-3.55-1.52l-6.09-5.07c-0.79-0.79-1.18-1.52-1.18-2.2
				c0-1.02,0.45-1.97,1.35-2.87l14.88-17.24c0.9-0.9,1.69-1.49,2.37-1.77c0.68-0.28,1.46-0.42,2.37-0.42h10.31
				c0.9,0,1.69,0.14,2.37,0.42c0.68,0.28,1.46,0.88,2.37,1.77l14.88,17.24c0.9,0.9,1.35,1.86,1.35,2.87c0,0.68-0.4,1.41-1.18,2.2
				l-6.09,5.07c-1.24,1.01-2.42,1.52-3.55,1.52c-1.35,0-2.59-0.62-3.72-1.86l-11.16-12h-0.85L218.44-767.3z M218.78-711
				c0,3.72,0.2,6.48,0.6,8.28c0.4,1.8,1.22,3.33,2.47,4.57c1.59,1.58,3.98,2.37,7.16,2.37h0.68c3.18,0,5.57-0.79,7.16-2.37
				c1.25-1.24,2.07-2.76,2.47-4.57c0.4-1.8,0.6-4.56,0.6-8.28v-13.19c0-3.72-0.2-6.48-0.6-8.28c-0.4-1.8-1.22-3.32-2.47-4.56
				c-1.59-1.58-3.98-2.37-7.16-2.37H229c-3.18,0-5.57,0.79-7.16,2.37c-1.25,1.24-2.07,2.76-2.47,4.56c-0.4,1.8-0.6,4.56-0.6,8.28
				V-711z"/>
			<path class="st2" d="M326.8-760.54c9.92,0,17.07,2.31,21.47,6.93c2.25,2.37,3.86,5.24,4.82,8.62c0.96,3.38,1.44,7.95,1.44,13.69
				v50.21c0,1.58-0.4,2.79-1.18,3.63c-0.79,0.84-2.31,1.27-4.56,1.27h-15.55c-2.26,0-3.78-0.42-4.56-1.26
				c-0.79-0.84-1.18-2.05-1.18-3.63v-47.71c0-3.82-0.62-6.41-1.86-7.75c-1.35-1.46-3.83-2.19-7.44-2.19h-1.01
				c-3.61,0-6.09,0.73-7.44,2.19c-1.24,1.35-1.86,3.94-1.86,7.75v47.71c0,1.57-0.4,2.79-1.18,3.63c-0.79,0.84-2.31,1.26-4.56,1.26
				h-15.55c-2.26,0-3.78-0.42-4.56-1.27c-0.79-0.84-1.18-2.05-1.18-3.63v-73.2c0-1.69,0.39-2.9,1.18-3.63
				c0.79-0.73,2.31-1.1,4.56-1.1h7.94c1.92,0,3.3,0.26,4.14,0.77c0.84,0.51,1.55,1.56,2.11,3.15l1.01,3.24h0.51
				c5.41-5.79,13.13-8.68,23.16-8.68H326.8z"/>
			<path class="st2" d="M415.05-754.11c0-1.58,0.39-2.79,1.18-3.64c0.79-0.84,2.31-1.27,4.56-1.27h15.55c2.25,0,3.77,0.42,4.56,1.27
				c0.79,0.85,1.18,2.06,1.18,3.64v50.04c0,5.41-0.62,9.89-1.86,13.44c-1.24,3.55-3.16,6.51-5.75,8.88
				c-3.04,2.7-6.91,4.56-11.58,5.58c-4.68,1.01-10.4,1.52-17.16,1.52c-6.76,0-12.48-0.51-17.16-1.52
				c-4.68-1.01-8.54-2.88-11.58-5.58c-2.59-2.37-4.51-5.33-5.75-8.88c-1.24-3.55-1.86-8.03-1.86-13.44v-50.04
				c0-1.58,0.39-2.79,1.18-3.64c0.79-0.84,2.31-1.27,4.56-1.27h15.55c2.25,0,3.77,0.42,4.56,1.27c0.79,0.85,1.18,2.06,1.18,3.64
				v47.67c0,3.83,0.62,6.42,1.86,7.78c1.35,1.47,3.83,2.2,7.44,2.2c3.61,0,6.09-0.73,7.44-2.2c1.24-1.35,1.86-3.94,1.86-7.78
				V-754.11z"/>
			<path class="st2" d="M455.96-734.06c0-8.32,2.2-14.62,6.59-18.89c5.18-5.06,13.75-7.59,25.7-7.59h1.69c1.91,0,4,0.08,6.25,0.25
				c2.25,0.17,4.51,0.4,6.76,0.68c2.25,0.28,4.4,0.59,6.42,0.93c2.03,0.34,3.78,0.73,5.24,1.18c1.46,0.45,2.37,0.99,2.71,1.61
				c0.34,0.62,0.39,1.55,0.17,2.79l-1.86,13.86c-0.23,1.58-1.18,2.37-2.87,2.37c-0.45,0-1.01-0.06-1.69-0.17
				c-2.93-0.68-5.92-1.24-8.96-1.69c-3.04-0.45-6.03-0.68-8.96-0.68h-0.17c-3.72,0-6.31,0.34-7.78,1.01
				c-1.47,0.67-2.2,1.85-2.2,3.53v0.51c0,1.57,0.68,2.72,2.03,3.45c1.35,0.73,3.89,1.49,7.61,2.27l7.94,1.69
				c3.61,0.79,6.68,1.77,9.21,2.96c2.54,1.18,4.62,2.68,6.26,4.48c1.63,1.81,2.82,4.01,3.55,6.6c0.73,2.59,1.1,5.64,1.1,9.14v2.54
				c0,8.8-2.68,15.43-8.03,19.89c-5.36,4.46-13.72,6.68-25.11,6.68h-1.69c-2.37,0-4.82-0.11-7.35-0.34
				c-2.54-0.23-5.07-0.54-7.61-0.93s-4.96-0.87-7.27-1.44c-2.31-0.56-4.31-1.18-6-1.86c-1.58-0.56-2.54-1.24-2.87-2.03
				c-0.11-0.34-0.17-0.84-0.17-1.52c0-0.68,0.06-1.46,0.17-2.37l2.37-11.16c0.45-2.48,1.63-3.72,3.55-3.72
				c0.68,0,1.41,0.16,2.2,0.49c2.82,0.87,6.17,1.71,10.06,2.52c3.89,0.81,7.3,1.22,10.23,1.22h0.51c3.83,0,6.45-0.39,7.86-1.18
				c1.41-0.79,2.11-2.08,2.11-3.88v-0.5c0-1.46-0.59-2.55-1.78-3.28c-1.18-0.73-3.92-1.54-8.2-2.44l-7.44-1.68
				c-7.21-1.57-12.4-4.04-15.55-7.42c-3.16-3.37-4.73-8.6-4.73-15.69V-734.06z"/>
			<path class="st2" d="M579.36-674.66c-16.24,0-27.85-3.77-34.83-11.33c-3.43-3.61-5.87-8.2-7.31-13.78
				c-1.44-5.58-2.16-12.48-2.16-20.71v-20.79c0-8.23,0.75-15.1,2.24-20.62c1.5-5.52,3.96-10.09,7.39-13.69
				c3.54-3.94,8.15-6.85,13.81-8.71c5.67-1.86,12.67-2.79,21.01-2.79h1.18c5.52,0,11.3,0.65,17.33,1.94
				c6.03,1.3,11.3,3.13,15.81,5.49c1.24,0.68,2.03,1.47,2.37,2.37c0.11,0.34,0.17,0.73,0.17,1.18c0,0.68-0.17,1.52-0.51,2.54
				l-5.58,14.2c-0.68,1.69-1.64,2.53-2.87,2.53c-1.02,0-2.09-0.28-3.21-0.84c-3.61-1.8-7.24-3.21-10.9-4.23
				c-3.66-1.01-7.47-1.52-11.41-1.52h-0.68c-7.21,0-12.06,2.03-14.54,6.09c-1.24,2.14-2.09,4.82-2.54,8.03
				c-0.45,3.21-0.68,7.24-0.68,12.09v12c0,5.19,0.31,9.53,0.93,13.02c0.62,3.49,1.89,6.37,3.8,8.62c1.58,1.69,3.63,2.99,6.17,3.89
				c2.54,0.9,5.77,1.35,9.72,1.35h0.68c3.04,0,6.56-0.48,10.57-1.44c4-0.96,7.46-2.06,10.4-3.3c0.45-0.22,0.87-0.39,1.27-0.51
				c0.39-0.11,0.87-0.17,1.44-0.17c0.68,0,1.27,0.25,1.77,0.76c0.51,0.51,0.93,1.44,1.27,2.79l2.87,12.17
				c0.34,1.35,0.51,2.42,0.51,3.21c0,1.01-0.34,1.86-1.01,2.54c-0.68,0.67-2.03,1.41-4.06,2.2c-3.95,1.58-8.48,2.87-13.61,3.89
				c-5.13,1.01-10.17,1.52-15.13,1.52H579.36z"/>
			<path class="st2" d="M652.56-749.89c2.03-3.27,4.51-5.61,7.44-7.02c2.93-1.41,6.76-2.11,11.5-2.11h6.76c1.8,0,3.07,0.31,3.8,0.93
				c0.73,0.62,1.1,1.89,1.1,3.8v12.34c0,1.92-0.34,3.18-1.01,3.8c-0.68,0.62-1.86,0.93-3.55,0.93h-5.07
				c-6.2,0-10.48,1.18-12.85,3.55c-1.13,1.13-1.89,2.65-2.28,4.56c-0.4,1.92-0.59,4.28-0.59,7.1v40.91c0,1.58-0.4,2.79-1.18,3.63
				c-0.79,0.84-2.31,1.27-4.57,1.27H636.5c-2.26,0-3.78-0.42-4.57-1.27c-0.79-0.84-1.18-2.05-1.18-3.63v-73.2
				c0-1.69,0.39-2.9,1.18-3.63c0.79-0.73,2.31-1.1,4.57-1.1h8.11c1.92,0,3.3,0.25,4.14,0.76c0.85,0.51,1.49,1.55,1.94,3.13
				l1.35,5.24H652.56z"/>
			<path class="st2" d="M734.45-696.47c2.72,0,5.85-0.23,9.42-0.68c3.56-0.45,6.42-0.96,8.57-1.52c0.45-0.11,0.96-0.22,1.53-0.34
				c0.57-0.11,1.13-0.17,1.7-0.17c1.7,0,2.71,0.96,3.05,2.87l1.36,8.45c0.23,0.9,0.4,1.75,0.51,2.54c0.11,0.79,0.17,1.47,0.17,2.03
				c0,1.13-0.28,2.03-0.84,2.7c-0.57,0.68-1.75,1.3-3.55,1.86c-3.38,1.24-7.44,2.23-12.17,2.96c-4.73,0.73-9.19,1.1-13.36,1.1h-3.21
				c-6.76,0-12.62-0.71-17.58-2.11c-4.96-1.41-8.9-3.58-11.83-6.51c-3.38-3.38-5.64-7.35-6.76-11.92
				c-1.13-4.56-1.69-10.28-1.69-17.16v-9.47c0-8.45,0.96-15.1,2.89-19.95c1.93-4.84,4.37-8.56,7.32-11.16
				c5.79-5.07,14.7-7.61,26.73-7.61h2.38c6.13,0,11.38,0.76,15.75,2.28c4.37,1.52,7.69,3.58,9.96,6.17c2.95,3.27,5.05,7.3,6.3,12.09
				c1.25,4.79,1.87,10.85,1.87,18.17v8.79c0,1.8-0.4,3.04-1.2,3.72c-0.8,0.67-2.06,1.01-3.78,1.01H716.8v1.35
				c0,3.95,1.13,6.68,3.39,8.2c2.26,1.52,6.39,2.28,12.39,2.28H734.45z M735.55-725.88c1.36,0,2.05-0.71,2.05-2.15v-2.65
				c0-3.31-0.57-5.85-1.7-7.61c-1.37-1.98-3.98-2.98-7.84-2.98h-1.53c-3.3,0-5.68,0.77-7.16,2.32c-1.71,1.88-2.56,4.85-2.56,8.93
				v4.14H735.55z"/>
			<path class="st2" d="M824.31-757.52v-28.21c0-1.58,0.39-2.79,1.18-3.63c0.79-0.85,2.31-1.27,4.56-1.27h15.72
				c2.25,0,3.75,0.42,4.48,1.27c0.73,0.84,1.1,2.06,1.1,3.64v76.92c0,6.65-0.57,11.83-1.69,15.55c-1.13,3.72-2.76,6.76-4.9,9.13
				c-3.04,3.27-6.85,5.66-11.41,7.18c-4.56,1.52-10.96,2.28-19.19,2.28h-2.87c-7.21,0-12.85-0.65-16.9-1.94
				c-4.06-1.29-7.5-3.18-10.31-5.66c-3.16-2.71-5.41-6.45-6.76-11.24c-1.35-4.79-2.03-10.57-2.03-17.33v-13.53
				c0-6.99,0.59-12.71,1.77-17.16c1.18-4.45,3.41-8.2,6.68-11.24c2.37-2.25,5.49-4.11,9.38-5.58c3.89-1.46,8.25-2.2,13.1-2.2h2.03
				c3.27,0,6.23,0.28,8.88,0.84c2.65,0.56,4.93,1.29,6.85,2.18H824.31z M824.31-727.7c0-2.6-0.17-4.53-0.51-5.77
				c-0.34-1.24-0.85-2.32-1.53-3.22c-1.48-1.81-4.14-2.72-8.01-2.72h-1.7c-3.64,0-6.25,0.96-7.84,2.88
				c-1.14,1.25-1.82,3.03-2.05,5.35c-0.23,2.32-0.34,5.86-0.34,10.61v7.47c0,4.3,0.14,7.55,0.43,9.76c0.28,2.21,0.99,3.93,2.13,5.18
				c1.36,1.58,3.98,2.37,7.84,2.37h1.88c3.29,0,5.73-0.73,7.33-2.21c1.59-1.58,2.38-4.3,2.38-8.15V-727.7z"/>
		</g>
	</g>
</g>
<g>
	<g>
		<path class="st2" d="M359.89,60.68c8.31,0,15.25,0.62,20.81,1.86c5.56,1.24,10.02,3.21,13.39,5.91c2.92,2.36,5.11,5.15,6.57,8.36
			c1.46,3.21,2.19,7.01,2.19,11.4v1.52c0,5.52-1.09,10.16-3.27,13.93c-2.18,3.77-5.11,6.61-8.8,8.53v0.51
			c5.27,1.35,9.5,3.94,12.69,7.77c3.19,3.83,4.78,9.12,4.78,15.87v2.2c0,9.79-2.57,17.28-7.72,22.46
			c-6.71,6.98-17.9,10.47-33.56,10.47h-4.7c-6.27,0-12.05-0.09-17.37-0.25c-5.31-0.17-9.15-0.48-11.5-0.93
			c-2.57-0.45-4.34-1.24-5.29-2.36c-0.95-1.13-1.42-2.81-1.42-5.07V68.62c0-2.47,0.42-4.16,1.26-5.06c0.84-0.9,2.38-1.46,4.63-1.69
			c3.7-0.45,7.75-0.76,12.13-0.93c4.38-0.17,8.88-0.25,13.48-0.25H359.89z M362.33,83.64h-3.21c-1.01,0-1.86,0.06-2.53,0.17
			c-1.01,0.23-1.52,0.84-1.52,1.84v19.43h7.6c4.28,0,7.31-0.73,9.12-2.18c1.8-1.45,2.7-4.07,2.7-7.87v-2.01
			c0-3.24-0.67-5.53-2.03-6.87c-1.58-1.67-4.45-2.51-8.61-2.51H362.33z M355.07,145.46c0,1.79,0.84,2.74,2.53,2.85
			c0.9,0.11,1.86,0.17,2.87,0.17h3.38h2.36c2.93,0,5.2-0.22,6.84-0.67c1.63-0.45,2.95-1.12,3.97-2.01c1.12-0.89,1.88-2.07,2.28-3.52
			c0.39-1.45,0.59-3.13,0.59-5.03v-1.34c0-3.91-1.01-6.65-3.04-8.21c-1.13-0.89-2.65-1.53-4.56-1.93c-1.91-0.39-4.39-0.59-7.43-0.59
			h-9.79V145.46z"/>
		<path class="st2" d="M494.71,135.48c0,4.28-0.23,8.05-0.68,11.31c-0.45,3.27-1.13,6.11-2.02,8.53c-0.9,2.42-2,4.53-3.29,6.33
			c-1.29,1.8-2.83,3.38-4.63,4.73c-2.47,1.92-5.9,3.49-10.28,4.73c-4.38,1.24-9.6,1.86-15.67,1.86h-2.02
			c-6.07,0-11.29-0.62-15.67-1.86c-4.38-1.24-7.81-2.81-10.28-4.73c-1.8-1.35-3.34-2.93-4.63-4.73c-1.29-1.8-2.39-3.91-3.29-6.33
			c-0.9-2.42-1.57-5.26-2.02-8.53c-0.45-3.26-0.67-7.03-0.67-11.31v-10.8c0-4.28,0.22-8.05,0.67-11.31c0.45-3.26,1.12-6.1,2.02-8.53
			c0.9-2.42,1.99-4.53,3.29-6.33c1.29-1.8,2.83-3.38,4.63-4.73c2.47-1.91,5.9-3.49,10.28-4.73c4.38-1.24,9.6-1.86,15.67-1.86h2.02
			c6.06,0,11.29,0.62,15.67,1.86c4.38,1.24,7.81,2.81,10.28,4.73c1.8,1.35,3.34,2.93,4.63,4.73c1.29,1.8,2.39,3.91,3.29,6.33
			c0.9,2.42,1.57,5.24,2.02,8.44c0.45,3.21,0.68,6.95,0.68,11.23V135.48z M446.25,80.44c-1.13,1.24-2.36,1.86-3.71,1.86
			c-1.24,0-2.42-0.51-3.55-1.52l-6.08-5.07c-0.79-0.78-1.18-1.52-1.18-2.19c0-1.01,0.45-1.97,1.35-2.87l14.86-17.22
			c0.9-0.9,1.69-1.49,2.36-1.77c0.68-0.28,1.46-0.42,2.36-0.42h10.3c0.9,0,1.69,0.14,2.36,0.42c0.68,0.28,1.46,0.87,2.36,1.77
			l14.86,17.22c0.9,0.9,1.35,1.86,1.35,2.87c0,0.67-0.4,1.41-1.18,2.19l-6.08,5.07c-1.24,1.01-2.42,1.52-3.55,1.52
			c-1.35,0-2.59-0.62-3.71-1.86l-11.14-11.99h-0.84L446.25,80.44z M446.59,136.66c0,3.71,0.2,6.47,0.59,8.27
			c0.4,1.8,1.22,3.32,2.47,4.56c1.59,1.58,3.97,2.36,7.15,2.36h0.68c3.18,0,5.56-0.78,7.15-2.36c1.24-1.24,2.07-2.76,2.47-4.56
			c0.4-1.8,0.6-4.56,0.6-8.27v-13.17c0-3.72-0.2-6.47-0.6-8.27c-0.4-1.8-1.22-3.32-2.47-4.56c-1.59-1.58-3.97-2.36-7.15-2.36h-0.68
			c-3.18,0-5.56,0.79-7.15,2.36c-1.25,1.24-2.07,2.76-2.47,4.56c-0.4,1.8-0.59,4.56-0.59,8.27V136.66z"/>
		<path class="st2" d="M554.48,87.19c9.9,0,17.05,2.31,21.44,6.92c2.25,2.36,3.86,5.23,4.81,8.61c0.96,3.38,1.44,7.94,1.44,13.68
			v50.15c0,1.58-0.4,2.78-1.18,3.63c-0.79,0.84-2.31,1.27-4.56,1.27H560.9c-2.25,0-3.77-0.42-4.56-1.26
			c-0.79-0.84-1.18-2.05-1.18-3.62v-47.65c0-3.81-0.62-6.4-1.86-7.74c-1.35-1.46-3.83-2.19-7.43-2.19h-1.01
			c-3.61,0-6.08,0.73-7.43,2.19c-1.24,1.35-1.86,3.93-1.86,7.74v47.65c0,1.57-0.39,2.78-1.18,3.62c-0.79,0.84-2.31,1.26-4.56,1.26
			H514.3c-2.25,0-3.77-0.42-4.56-1.27c-0.79-0.84-1.18-2.05-1.18-3.63V93.44c0-1.69,0.39-2.89,1.18-3.63
			c0.79-0.73,2.31-1.1,4.56-1.1h7.93c1.91,0,3.29,0.26,4.14,0.77c0.84,0.51,1.54,1.56,2.11,3.15l1.01,3.23H530
			c5.4-5.78,13.11-8.67,23.13-8.67H554.48z"/>
		<path class="st2" d="M642.61,93.61c0-1.58,0.39-2.78,1.18-3.63c0.78-0.84,2.3-1.27,4.56-1.27h15.53c2.25,0,3.77,0.42,4.56,1.27
			c0.79,0.84,1.18,2.05,1.18,3.63v49.98c0,5.4-0.62,9.88-1.86,13.42c-1.24,3.55-3.15,6.5-5.74,8.86c-3.04,2.7-6.9,4.56-11.57,5.57
			c-4.67,1.01-10.38,1.52-17.14,1.52c-6.75,0-12.47-0.51-17.14-1.52c-4.67-1.01-8.53-2.87-11.56-5.57c-2.59-2.36-4.5-5.32-5.74-8.86
			c-1.24-3.55-1.86-8.02-1.86-13.42V93.61c0-1.58,0.39-2.78,1.18-3.63c0.79-0.84,2.3-1.27,4.56-1.27h15.53
			c2.25,0,3.77,0.42,4.56,1.27c0.79,0.84,1.18,2.05,1.18,3.63v47.61c0,3.83,0.62,6.42,1.86,7.77c1.35,1.46,3.83,2.2,7.43,2.2
			c3.6,0,6.08-0.73,7.43-2.2c1.24-1.35,1.86-3.94,1.86-7.77V93.61z"/>
		<path class="st2" d="M683.47,113.64c0-8.31,2.2-14.6,6.58-18.87c5.18-5.05,13.73-7.58,25.66-7.58h1.69c1.91,0,3.99,0.09,6.25,0.26
			c2.25,0.17,4.5,0.39,6.75,0.67c2.25,0.28,4.39,0.59,6.42,0.93c2.03,0.34,3.77,0.73,5.23,1.18c1.46,0.45,2.36,0.99,2.7,1.6
			c0.34,0.62,0.39,1.55,0.17,2.79l-1.86,13.84c-0.23,1.58-1.18,2.36-2.87,2.36c-0.45,0-1.01-0.06-1.69-0.17
			c-2.93-0.68-5.91-1.24-8.95-1.69c-3.04-0.45-6.02-0.68-8.95-0.68h-0.17c-3.71,0-6.31,0.34-7.77,1.01
			c-1.47,0.67-2.19,1.85-2.19,3.53v0.51c0,1.57,0.67,2.72,2.03,3.45c1.35,0.73,3.88,1.49,7.6,2.27l7.94,1.68
			c3.6,0.78,6.67,1.77,9.2,2.95c2.53,1.18,4.61,2.68,6.25,4.48c1.63,1.81,2.81,4,3.55,6.59c0.73,2.59,1.1,5.63,1.1,9.13v2.53
			c0,8.79-2.68,15.41-8.02,19.86c-5.35,4.45-13.71,6.68-25.08,6.68h-1.69c-2.36,0-4.81-0.11-7.35-0.34
			c-2.53-0.23-5.06-0.54-7.6-0.93c-2.53-0.39-4.95-0.87-7.26-1.44c-2.31-0.56-4.31-1.18-5.99-1.86c-1.58-0.56-2.53-1.24-2.87-2.03
			c-0.11-0.34-0.17-0.84-0.17-1.52c0-0.68,0.06-1.46,0.17-2.36l2.36-11.14c0.45-2.47,1.63-3.71,3.55-3.71
			c0.68,0,1.41,0.17,2.19,0.49c2.81,0.87,6.16,1.7,10.05,2.52c3.88,0.81,7.29,1.22,10.21,1.22h0.51c3.83,0,6.44-0.39,7.85-1.18
			c1.41-0.79,2.11-2.08,2.11-3.87v-0.51c0-1.46-0.59-2.55-1.77-3.28c-1.18-0.73-3.91-1.54-8.19-2.44l-7.43-1.68
			c-7.21-1.57-12.38-4.04-15.53-7.41c-3.15-3.37-4.73-8.59-4.73-15.67V113.64z"/>
		<path class="st2" d="M806.72,172.97c-16.22,0-27.82-3.77-34.78-11.31c-3.43-3.6-5.86-8.19-7.3-13.76
			c-1.44-5.57-2.15-12.47-2.15-20.68v-20.77c0-8.21,0.75-15.08,2.24-20.6c1.49-5.51,3.95-10.07,7.38-13.67
			c3.54-3.94,8.14-6.84,13.8-8.7c5.66-1.86,12.66-2.78,20.99-2.78h1.18c5.51,0,11.28,0.65,17.31,1.94
			c6.02,1.29,11.28,3.12,15.79,5.49c1.24,0.68,2.03,1.46,2.36,2.36c0.11,0.34,0.17,0.73,0.17,1.18c0,0.67-0.17,1.52-0.51,2.53
			l-5.57,14.18c-0.68,1.69-1.63,2.53-2.87,2.53c-1.01,0-2.08-0.28-3.21-0.84c-3.6-1.8-7.23-3.21-10.89-4.22
			c-3.66-1.01-7.46-1.52-11.4-1.52h-0.68c-7.21,0-12.05,2.03-14.52,6.08c-1.24,2.14-2.08,4.81-2.53,8.02
			c-0.45,3.21-0.68,7.24-0.68,12.07v11.99c0,5.18,0.31,9.51,0.93,13c0.62,3.49,1.88,6.36,3.8,8.61c1.58,1.69,3.63,2.98,6.16,3.88
			c2.53,0.9,5.77,1.35,9.71,1.35h0.68c3.04,0,6.56-0.48,10.55-1.44c3.99-0.95,7.46-2.05,10.38-3.29c0.45-0.22,0.87-0.39,1.27-0.51
			c0.39-0.11,0.87-0.17,1.44-0.17c0.67,0,1.27,0.25,1.77,0.76c0.51,0.51,0.93,1.44,1.27,2.78l2.87,12.16
			c0.34,1.35,0.51,2.42,0.51,3.21c0,1.01-0.34,1.86-1.01,2.53c-0.68,0.67-2.03,1.41-4.05,2.2c-3.94,1.58-8.47,2.87-13.59,3.88
			c-5.12,1.01-10.16,1.52-15.11,1.52H806.72z"/>
		<path class="st2" d="M879.83,97.83c2.03-3.26,4.5-5.6,7.43-7.01c2.93-1.41,6.75-2.11,11.48-2.11h6.75c1.8,0,3.07,0.31,3.8,0.93
			c0.73,0.62,1.1,1.88,1.1,3.8v12.33c0,1.91-0.34,3.18-1.01,3.8c-0.68,0.62-1.86,0.93-3.55,0.93h-5.07
			c-6.19,0-10.47,1.18-12.83,3.55c-1.13,1.13-1.89,2.65-2.28,4.56c-0.4,1.92-0.59,4.28-0.59,7.09v40.86c0,1.58-0.4,2.78-1.18,3.63
			c-0.79,0.84-2.31,1.27-4.56,1.27h-15.53c-2.25,0-3.77-0.42-4.56-1.27c-0.79-0.84-1.18-2.05-1.18-3.63V93.44
			c0-1.69,0.39-2.89,1.18-3.63c0.79-0.73,2.31-1.1,4.56-1.1h8.1c1.91,0,3.29,0.26,4.14,0.76c0.84,0.51,1.49,1.55,1.94,3.12
			l1.35,5.23H879.83z"/>
		<path class="st2" d="M961.61,151.18c2.71,0,5.85-0.23,9.4-0.68c3.56-0.45,6.41-0.96,8.56-1.52c0.45-0.11,0.96-0.22,1.53-0.34
			c0.56-0.11,1.13-0.17,1.7-0.17c1.69,0,2.71,0.96,3.05,2.87l1.36,8.44c0.23,0.9,0.4,1.75,0.51,2.53c0.11,0.79,0.17,1.47,0.17,2.03
			c0,1.13-0.28,2.03-0.84,2.7c-0.57,0.67-1.75,1.29-3.55,1.86c-3.38,1.24-7.43,2.22-12.16,2.96c-4.73,0.73-9.17,1.1-13.34,1.1h-3.21
			c-6.75,0-12.61-0.71-17.56-2.11c-4.95-1.41-8.89-3.57-11.82-6.5c-3.38-3.38-5.63-7.34-6.75-11.9c-1.13-4.56-1.69-10.27-1.69-17.14
			v-9.45c0-8.44,0.96-15.08,2.89-19.92c1.93-4.84,4.36-8.55,7.31-11.14c5.78-5.07,14.68-7.6,26.69-7.6h2.38
			c6.12,0,11.36,0.76,15.73,2.28c4.36,1.52,7.68,3.57,9.95,6.16c2.94,3.27,5.04,7.29,6.29,12.07c1.24,4.78,1.87,10.83,1.87,18.15
			v8.78c0,1.8-0.4,3.04-1.2,3.72c-0.8,0.67-2.06,1.01-3.77,1.01h-41.12v1.35c0,3.94,1.13,6.67,3.39,8.19
			c2.26,1.52,6.39,2.28,12.37,2.28H961.61z M962.71,121.8c1.36,0,2.04-0.71,2.04-2.15v-2.64c0-3.3-0.57-5.84-1.7-7.6
			c-1.36-1.98-3.97-2.98-7.83-2.98h-1.53c-3.29,0-5.67,0.78-7.15,2.31c-1.7,1.88-2.55,4.85-2.55,8.92v4.13H962.71z"/>
		<path class="st2" d="M1051.36,90.21V62.03c0-1.58,0.39-2.78,1.18-3.63c0.79-0.84,2.31-1.26,4.56-1.26h15.7
			c2.25,0,3.74,0.42,4.48,1.26c0.73,0.84,1.1,2.06,1.1,3.63v76.82c0,6.64-0.56,11.82-1.69,15.53c-1.13,3.71-2.76,6.75-4.9,9.12
			c-3.04,3.26-6.84,5.66-11.4,7.17c-4.56,1.52-10.95,2.28-19.16,2.28h-2.87c-7.21,0-12.83-0.65-16.88-1.94
			c-4.05-1.29-7.49-3.18-10.3-5.66c-3.15-2.7-5.4-6.44-6.75-11.23c-1.35-4.78-2.03-10.55-2.03-17.31v-13.51
			c0-6.98,0.59-12.69,1.77-17.14c1.18-4.45,3.4-8.19,6.67-11.23c2.36-2.25,5.49-4.11,9.37-5.57c3.88-1.46,8.24-2.2,13.08-2.2h2.03
			c3.26,0,6.22,0.28,8.86,0.84c2.64,0.56,4.92,1.28,6.84,2.18H1051.36z M1051.36,119.99c0-2.6-0.17-4.52-0.51-5.76
			c-0.34-1.24-0.85-2.32-1.53-3.22c-1.48-1.81-4.14-2.71-8-2.71h-1.7c-3.63,0-6.24,0.96-7.83,2.88c-1.13,1.25-1.81,3.02-2.04,5.34
			c-0.23,2.32-0.34,5.85-0.34,10.6v7.46c0,4.29,0.14,7.54,0.42,9.75c0.28,2.2,0.99,3.93,2.13,5.17c1.36,1.58,3.97,2.37,7.83,2.37
			h1.87c3.29,0,5.73-0.73,7.32-2.2c1.59-1.58,2.38-4.29,2.38-8.14V119.99z"/>
	</g>
	<g>
		<path class="st0" d="M149.45,19.21c3.39,3.39,3.39,8.89,0,12.28l-16.66,16.66c-3.39,3.39-8.89,3.39-12.28,0l-16.66-16.66
			c-3.39-3.39-3.39-8.89,0-12.28l16.66-16.66c3.39-3.39,8.89-3.39,12.28,0L149.45,19.21z"/>
		<path class="st1" d="M120.51,74.9c3.39-3.39,3.39-8.89,0-12.28L89.37,31.49c-3.39-3.39-8.89-3.39-12.28,0L2.54,106.04
			c-3.39,3.39-3.39,8.89,0,12.28l74.55,74.55c3.39,3.39,8.89,3.39,12.28,0l31.13-31.13c3.39-3.39,3.39-8.89,0-12.28l-31.13-31.13
			c-3.39-3.39-3.39-8.89,0-12.28L120.51,74.9z"/>
		<path class="st0" d="M149.45,192.86c3.39,3.39,3.39,8.89,0,12.28l-16.66,16.66c-3.39,3.39-8.89,3.39-12.28,0l-16.66-16.66
			c-3.39-3.39-3.39-8.89,0-12.28l16.66-16.66c3.39-3.39,8.89-3.39,12.28,0L149.45,192.86z"/>
		<path class="st0" d="M176.2,31.49c-3.39-3.39-8.89-3.39-12.28,0l-31.13,31.14c-3.39,3.39-3.39,8.89,0,12.28l31.13,31.14
			c3.39,3.39,3.39,8.89,0,12.28l-31.13,31.13c-3.39,3.39-3.39,8.89,0,12.28l31.13,31.13c3.39,3.39,8.89,3.39,12.28,0l74.55-74.55
			c3.39-3.39,3.39-8.89,0-12.28L176.2,31.49z"/>
	</g>
</g>
</svg>
